<svg width="154" height="32" xmlns="http://www.w3.org/2000/svg" xmlns:xlink="http://www.w3.org/1999/xlink"><defs><path d="M23.836 12.578c2.399 4.245.97 9.694-3.185 12.145l-6.927 4.088A8.506 8.506 0 019.388 30c-3.01 0-5.94-1.595-7.55-4.444a1.71 1.71 0 01.606-2.309 1.635 1.635 0 012.26.619c1.486 2.632 4.79 3.537 7.366 2.017l6.927-4.087c2.576-1.52 3.461-4.897 1.974-7.528-1.486-2.632-4.791-3.537-7.366-2.017l-3.629 2.14a1.635 1.635 0 01-2.26-.618 1.71 1.71 0 01.606-2.309l3.629-2.14c4.155-2.452 9.486-.992 11.885 3.254zm-.67-8.108c.458.814.187 1.853-.604 2.323a1.63 1.63 0 01-2.26-.622c-1.487-2.648-4.792-3.558-7.367-2.03L6.008 8.253a5.49 5.49 0 00-2.513 3.366 5.643 5.643 0 00.54 4.207 5.38 5.38 0 003.274 2.583 5.23 5.23 0 004.092-.554L15.03 15.7a1.63 1.63 0 012.259.623c.457.813.186 1.853-.606 2.322L13.055 20.8a8.47 8.47 0 01-4.336 1.202 8.524 8.524 0 01-2.266-.309c-2.245-.618-4.122-2.098-5.284-4.167A9.103 9.103 0 01.3 10.739C.902 8.43 2.341 6.503 4.354 5.308l6.927-4.111C15.436-1.27 20.768.199 23.167 4.47z" id="a"/></defs><g transform="translate(0 1)" fill="none" fill-rule="evenodd"><path d="M47.24 14.264c.976.272 1.732.768 2.268 1.488.536.72.804 1.6.804 2.64 0 1.44-.516 2.568-1.548 3.384-1.032.816-2.452 1.224-4.26 1.224h-7.68V6.08h7.44c1.76 0 3.14.388 4.14 1.164 1 .776 1.5 1.86 1.5 3.252 0 .896-.236 1.672-.708 2.328-.472.656-1.124 1.136-1.956 1.44zm-7.392-1.056h3.912c2.128 0 3.192-.792 3.192-2.376 0-.8-.264-1.392-.792-1.776-.528-.384-1.328-.576-2.4-.576h-3.912v4.728zm4.32 7.392c1.12 0 1.936-.2 2.448-.6.512-.4.768-1.024.768-1.872 0-.848-.26-1.48-.78-1.896-.52-.416-1.332-.624-2.436-.624h-4.32V20.6h4.32zm18.88-2.928h-7.992c.096 1.088.424 1.896.984 2.424s1.36.792 2.4.792c1.296 0 2.48-.416 3.552-1.248l.864 2.064c-.544.448-1.228.808-2.052 1.08a7.881 7.881 0 01-2.484.408c-1.92 0-3.436-.544-4.548-1.632-1.112-1.088-1.668-2.576-1.668-4.464 0-1.2.24-2.264.72-3.192a5.235 5.235 0 012.028-2.16c.872-.512 1.86-.768 2.964-.768 1.616 0 2.892.52 3.828 1.56.936 1.04 1.404 2.472 1.404 4.296v.84zm-5.16-4.584c-.8 0-1.444.256-1.932.768s-.788 1.248-.9 2.208h5.424c-.032-.976-.272-1.716-.72-2.22-.448-.504-1.072-.756-1.872-.756zM65.56 6.08h11.088v2.472h-8.04v4.608h7.56v2.472h-7.56V23H65.56V6.08zm18.232 17.112c-1.2 0-2.252-.248-3.156-.744a5.148 5.148 0 01-2.1-2.136c-.496-.928-.744-2.008-.744-3.24 0-1.232.248-2.308.744-3.228a5.166 5.166 0 012.1-2.124c.904-.496 1.956-.744 3.156-.744 1.2 0 2.252.248 3.156.744a5.09 5.09 0 012.088 2.124c.488.92.732 1.996.732 3.228 0 1.232-.244 2.312-.732 3.24a5.074 5.074 0 01-2.088 2.136c-.904.496-1.956.744-3.156.744zm-.024-2.328c.976 0 1.72-.32 2.232-.96.512-.64.768-1.584.768-2.832 0-1.232-.256-2.172-.768-2.82-.512-.648-1.248-.972-2.208-.972-.96 0-1.7.324-2.22.972-.52.648-.78 1.588-.78 2.82 0 1.248.256 2.192.768 2.832.512.64 1.248.96 2.208.96zm13.624 2.328c-1.232 0-2.3-.248-3.204-.744a5.033 5.033 0 01-2.076-2.112c-.48-.912-.72-1.976-.72-3.192 0-1.216.252-2.292.756-3.228a5.3 5.3 0 012.148-2.172c.928-.512 2-.768 3.216-.768.832 0 1.644.132 2.436.396s1.428.62 1.908 1.068l-.864 2.112a5.704 5.704 0 00-1.572-.912 4.637 4.637 0 00-1.644-.312c-1.04 0-1.848.324-2.424.972-.576.648-.864 1.58-.864 2.796 0 1.2.288 2.124.864 2.772.576.648 1.384.972 2.424.972.544 0 1.092-.104 1.644-.312a5.704 5.704 0 001.572-.912l.864 2.088c-.512.464-1.168.828-1.968 1.092-.8.264-1.632.396-2.496.396zm16.936-11.928V23H111.4v-1.8a3.823 3.823 0 01-1.488 1.476c-.624.344-1.328.516-2.112.516-2.88 0-4.32-1.616-4.32-4.848v-7.08h3v7.104c0 .832.168 1.448.504 1.848.336.4.864.6 1.584.6.832 0 1.5-.276 2.004-.828.504-.552.756-1.284.756-2.196v-6.528h3zm7.24 11.928c-1.04 0-1.996-.128-2.868-.384-.872-.256-1.612-.624-2.22-1.104l.84-2.088c1.248.912 2.68 1.368 4.296 1.368.688 0 1.212-.112 1.572-.336.36-.224.54-.544.54-.96 0-.352-.124-.624-.372-.816-.248-.192-.692-.368-1.332-.528l-1.92-.432c-1.088-.24-1.896-.632-2.424-1.176-.528-.544-.792-1.248-.792-2.112 0-.72.204-1.356.612-1.908.408-.552.976-.98 1.704-1.284.728-.304 1.572-.456 2.532-.456a7.65 7.65 0 012.412.384c.776.256 1.46.616 2.052 1.08l-.84 2.04c-1.216-.88-2.432-1.32-3.648-1.32-.656 0-1.168.12-1.536.36-.368.24-.552.576-.552 1.008 0 .32.116.584.348.792.232.208.604.368 1.116.48l1.992.456c1.168.256 2.024.66 2.568 1.212.544.552.816 1.276.816 2.172 0 1.088-.44 1.952-1.32 2.592-.88.64-2.072.96-3.576.96zm17.416-5.52h-7.992c.096 1.088.424 1.896.984 2.424s1.36.792 2.4.792c1.296 0 2.48-.416 3.552-1.248l.864 2.064c-.544.448-1.228.808-2.052 1.08a7.881 7.881 0 01-2.484.408c-1.92 0-3.436-.544-4.548-1.632-1.112-1.088-1.668-2.576-1.668-4.464 0-1.2.24-2.264.72-3.192a5.235 5.235 0 012.028-2.16c.872-.512 1.86-.768 2.964-.768 1.616 0 2.892.52 3.828 1.56.936 1.04 1.404 2.472 1.404 4.296v.84zm-5.16-4.584c-.8 0-1.444.256-1.932.768s-.788 1.248-.9 2.208h5.424c-.032-.976-.272-1.716-.72-2.22-.448-.504-1.072-.756-1.872-.756zM152.56 6.08V23h-2.976v-1.896a3.757 3.757 0 01-1.524 1.536c-.664.368-1.42.552-2.268.552-1.008 0-1.908-.256-2.7-.768-.792-.512-1.408-1.236-1.848-2.172-.44-.936-.66-2.012-.66-3.228 0-1.216.22-2.28.66-3.192.44-.912 1.052-1.616 1.836-2.112s1.688-.744 2.712-.744c.848 0 1.6.176 2.256.528.656.352 1.16.848 1.512 1.488V6.08h3zm-5.976 14.784c.96 0 1.7-.328 2.22-.984.52-.656.78-1.592.78-2.808 0-1.216-.26-2.148-.78-2.796-.52-.648-1.252-.972-2.196-.972-.96 0-1.704.32-2.232.96-.528.64-.792 1.56-.792 2.76 0 1.216.264 2.16.792 2.832.528.672 1.264 1.008 2.208 1.008z" fill="#000" fill-rule="nonzero"/><use fill="#2566F2" xlink:href="#a"/></g></svg>